<svg width="47" height="48" viewBox="0 0 47 48" fill="none" xmlns="http://www.w3.org/2000/svg">
<path d="M45.3473 31.3212L31.2321 24L45.3473 16.6788C46.5181 16.0716 46.9316 14.674 46.2637 13.5816L44.3302 10.4183C43.6624 9.32588 42.1743 8.96531 41.0322 9.61931L27.2619 17.5048L27.6068 2.29819C27.6354 1.03697 26.5609 0 25.2252 0H21.3582C20.0226 0 18.9479 1.03697 18.9766 2.29819L19.3214 17.5048L5.55114 9.61941C4.4091 8.96541 2.92096 9.32597 2.25317 10.4184L0.319658 13.5817C-0.348136 14.6741 0.0653642 16.0717 1.23609 16.6789L15.3512 24L1.23599 31.3212C0.0652651 31.9284 -0.348236 33.326 0.319658 34.4184L2.25317 37.5817C2.92096 38.6741 4.4091 39.0347 5.55114 38.3807L19.3214 30.4952L18.9765 45.7018C18.9479 46.963 20.0226 48 21.3582 48H25.2253C26.5609 48 27.6355 46.963 27.6069 45.7018L27.2619 30.4952L41.0322 38.3806C42.1742 39.0346 43.6624 38.674 44.3302 37.5816L46.2637 34.4183C46.9315 33.3259 46.5181 31.9284 45.3473 31.3212Z" fill="#00D3D4"/>
</svg>
