<svg width="66" height="48" viewBox="0 0 66 48" fill="none" xmlns="http://www.w3.org/2000/svg">
<path d="M47.7237 17.1429C47.7237 7.67464 37.1156 0 24.0285 0C10.9415 0 0.333313 7.67464 0.333313 17.1429C0.333313 20.8146 1.94299 24.2089 4.65883 26.9979C3.13687 30.2379 0.62039 32.8029 0.583935 32.8393C0.46127 32.9608 0.379186 33.1135 0.347843 33.2784C0.316501 33.4433 0.337277 33.6133 0.407599 33.7673C0.477922 33.9212 0.594703 34.0524 0.743485 34.1445C0.892268 34.2367 1.06652 34.2858 1.24467 34.2857C5.41183 34.2857 8.86928 32.9732 11.3527 31.6093C15.0209 33.2957 19.3601 34.2857 24.0285 34.2857C37.1156 34.2857 47.7237 26.6111 47.7237 17.1429ZM22.2058 27.4286V25.6832C20.9197 25.6211 19.6688 25.1989 18.6322 24.4671C18.1879 24.1532 18.1651 23.5275 18.5672 23.1664L19.9058 21.9654C20.2213 21.6825 20.6907 21.6696 21.0598 21.8871C21.5007 22.1464 22.0008 22.2857 22.5202 22.2857H25.7225C26.463 22.2857 27.0667 21.6514 27.0667 20.8725C27.0667 20.235 26.6555 19.6736 26.0677 19.5086L20.9413 18.0621C18.8235 17.4643 17.3437 15.5529 17.3437 13.4132C17.3437 10.7861 19.5139 8.65179 22.2047 8.58429V6.85714C22.2047 6.38357 22.6125 6 23.116 6H24.9387C25.4423 6 25.8501 6.38357 25.8501 6.85714V8.6025C27.1362 8.66464 28.3871 9.08571 29.4237 9.81857C29.868 10.1325 29.8908 10.7582 29.4887 11.1193L28.1501 12.3204C27.8346 12.6032 27.3652 12.6161 26.9961 12.3986C26.5553 12.1382 26.0551 12 25.5357 12H22.3334C21.5929 12 20.9892 12.6343 20.9892 13.4132C20.9892 14.0507 21.4004 14.6121 21.9882 14.7771L27.1146 16.2236C29.2324 16.8214 30.7122 18.7329 30.7122 20.8725C30.7122 23.5007 28.542 25.6339 25.8512 25.7014V27.4286C25.8512 27.9021 25.4434 28.2857 24.9399 28.2857H23.1172C22.6136 28.2857 22.2058 27.9021 22.2058 27.4286ZM61.623 40.7132C64.3411 37.9243 65.9508 34.5289 65.9508 30.8571C65.9508 23.685 59.8573 17.55 51.2176 14.9925C51.3156 15.6996 51.3691 16.4164 51.3691 17.1429C51.3691 28.4861 39.1046 37.7143 24.0285 37.7143C22.8005 37.7143 21.5998 37.6318 20.4139 37.5129C24.0057 43.6746 32.4323 48 42.2556 48C46.924 48 51.2632 47.01 54.9314 45.3236C57.4148 46.6875 60.8723 48 65.0395 48C65.404 48 65.7332 47.7954 65.8756 47.4814C66.0203 47.1664 65.9508 46.8021 65.6991 46.5525C65.6637 46.5171 63.145 43.9554 61.623 40.7132Z" fill="#00D3D4"/>
</svg>
