<svg width="46" height="48" viewBox="0 0 46 48" fill="none" xmlns="http://www.w3.org/2000/svg">
<path d="M22.8749 48C26.3766 48 29.2171 45.3141 29.2171 42H16.5326C16.5326 45.3141 19.3731 48 22.8749 48ZM44.2295 33.9647C42.314 32.0184 38.73 29.0906 38.73 19.5C38.73 12.2156 33.3286 6.38438 26.0455 4.95375V3C26.0455 1.34344 24.6258 0 22.8749 0C21.124 0 19.7043 1.34344 19.7043 3V4.95375C12.4211 6.38438 7.01977 12.2156 7.01977 19.5C7.01977 29.0906 3.43571 32.0184 1.52025 33.9647C0.925384 34.5694 0.661661 35.2922 0.666618 36C0.677524 37.5375 1.95351 39 3.84914 39H41.9006C43.7962 39 45.0732 37.5375 45.0831 36C45.0881 35.2922 44.8244 34.5684 44.2295 33.9647Z" fill="#00D3D4"/>
</svg>
