<svg width="792" height="465" viewBox="0 0 792 465" fill="none" xmlns="http://www.w3.org/2000/svg">
<path d="M713.658 0H78.0749C71.605 0 66.3602 5.22476 66.3602 11.6698V444.415C66.3602 450.86 71.605 456.084 78.0749 456.084H713.658C720.128 456.084 725.373 450.86 725.373 444.415V11.6698C725.373 5.22476 720.128 0 713.658 0Z" fill="url(#paint0_radial_21_41)"/>
<path d="M710.873 5.05426H80.8596C75.6539 5.05426 71.4339 9.25814 71.4339 14.4439V441.639C71.4339 446.825 75.6539 451.029 80.8596 451.029H710.873C716.079 451.029 720.299 446.825 720.299 441.639V14.4439C720.299 9.25814 716.079 5.05426 710.873 5.05426Z" fill="#231F20"/>
<path d="M699.405 5.05426H92.3055C86.7647 5.06296 81.4536 7.26061 77.5372 11.1651C73.6209 15.0696 71.4191 20.3622 71.4149 25.8817V430.202C71.4191 435.721 73.6209 441.014 77.5372 444.918C81.4536 448.823 86.7647 451.02 92.3055 451.029H699.405C704.946 451.02 710.257 448.823 714.174 444.918C718.09 441.014 720.292 435.721 720.296 430.202V25.8817C720.292 20.3622 718.09 15.0696 714.174 11.1651C710.257 7.26061 704.946 5.06296 699.405 5.05426ZM717.751 430.202C717.752 432.602 717.278 434.98 716.357 437.198C715.435 439.416 714.084 441.432 712.38 443.13C710.677 444.828 708.654 446.176 706.428 447.095C704.202 448.015 701.815 448.488 699.405 448.489H92.3055C87.4401 448.482 82.7763 446.552 79.337 443.124C75.8978 439.695 73.964 435.048 73.9597 430.202V25.8817C73.964 21.035 75.8978 16.3878 79.337 12.9595C82.7763 9.53117 87.4401 7.60172 92.3055 7.59434H699.405C701.815 7.59512 704.202 8.06876 706.428 8.98822C708.654 9.90767 710.677 11.2549 712.38 12.9531C714.084 14.6512 715.435 16.667 716.357 18.8853C717.278 21.1036 717.752 23.481 717.751 25.8817V430.202Z" fill="#494143"/>
<path d="M701.2 33.9022H89.6467V412.381H701.2V33.9022Z" fill="url(#paint1_radial_21_41)"/>
<path opacity="0.2" d="M460.288 5.05426H92.3275C86.7867 5.06296 81.4756 7.26061 77.5592 11.1651C73.6429 15.0696 71.4411 20.3622 71.4369 25.8817V430.202C71.4411 435.721 73.6429 441.014 77.5592 444.918C81.4756 448.823 86.7867 451.02 92.3275 451.029H327.612L460.288 5.05426Z" fill="url(#paint2_radial_21_41)"/>
<path d="M396.609 440.92H0V454.605C4.62397 457.784 9.62675 460.379 14.8933 462.329C22.4899 465.11 26.8579 464.78 35.521 465H756.104C764.767 464.779 769.132 465.11 776.755 462.329C782.019 460.373 787.021 457.779 791.648 454.605V440.92H396.609Z" fill="url(#paint3_linear_21_41)"/>
<path d="M449.586 440.92H342.034C342.034 440.92 340.235 451.029 361.134 451.029H430.484C451.381 451.029 449.586 440.92 449.586 440.92Z" fill="url(#paint4_linear_21_41)"/>
<path d="M701.717 33.5739H89.9686V412.818H701.717V33.5739Z" fill="#EBEBEB"/>
<path d="M225.966 33.2112H89.9026V413.105H225.966V33.2112Z" fill="#C5C6CB"/>
<path d="M225.966 33.2112H89.9026V70.1773H225.966V33.2112Z" fill="#029FA0"/>
<path d="M216.895 83.3208H98.9735V88.2513H216.895V83.3208Z" fill="white"/>
<path d="M216.895 196.683H98.9735V201.614H216.895V196.683Z" fill="white"/>
<path d="M192.981 140.002H98.9735V144.933H192.981V140.002Z" fill="white"/>
<path d="M216.895 112.072H98.9735V116.181H216.895V112.072Z" fill="white"/>
<path d="M186.384 168.754H98.9735V172.862H186.384V168.754Z" fill="white"/>
<path d="M197.929 97.2858H98.9735V102.216H197.929V97.2858Z" fill="white"/>
<path d="M210.298 153.967H98.9735V158.898H210.298V153.967Z" fill="white"/>
<path d="M207 126.037H98.9735V130.968H207V126.037Z" fill="white"/>
<path d="M197.929 182.719H98.9735V187.649H197.929V182.719Z" fill="white"/>
<path d="M98.9735 221.456H178.575V226.386H98.9735V221.456Z" fill="white"/>
<path d="M210.298 250.207H98.9735V254.316H210.298V250.207Z" fill="white"/>
<path d="M197.929 235.421H98.9735V240.351H197.929V235.421Z" fill="white"/>
<path d="M207 264.172H98.9735V269.103H207V264.172Z" fill="white"/>
<path d="M216.92 46.4791H126.961V54.4449H216.92V46.4791Z" fill="white"/>
<path d="M530.38 188.844H243.159C240.951 188.844 239.16 190.627 239.16 192.827V395.979C239.16 398.178 240.951 399.962 243.159 399.962H530.38C532.588 399.962 534.378 398.178 534.378 395.979V192.827C534.378 190.627 532.588 188.844 530.38 188.844Z" fill="white"/>
<path d="M507.577 217.596H478.716C475.3 217.596 472.531 220.354 472.531 223.757C472.531 227.159 475.3 229.918 478.716 229.918H507.577C510.993 229.918 513.762 227.159 513.762 223.757C513.762 220.354 510.993 217.596 507.577 217.596Z" fill="#00D3D4"/>
<path d="M507.577 255.383H478.716C475.3 255.383 472.531 258.142 472.531 261.544C472.531 264.947 475.3 267.705 478.716 267.705H507.577C510.993 267.705 513.762 264.947 513.762 261.544C513.762 258.142 510.993 255.383 507.577 255.383Z" fill="#00D3D4"/>
<path d="M507.577 293.992H478.716C475.3 293.992 472.531 296.751 472.531 300.153C472.531 303.556 475.3 306.314 478.716 306.314H507.577C510.993 306.314 513.762 303.556 513.762 300.153C513.762 296.751 510.993 293.992 507.577 293.992Z" fill="#00D3D4"/>
<path d="M507.577 331.78H478.716C475.3 331.78 472.531 334.538 472.531 337.941C472.531 341.343 475.3 344.102 478.716 344.102H507.577C510.993 344.102 513.762 341.343 513.762 337.941C513.762 334.538 510.993 331.78 507.577 331.78Z" fill="#00D3D4"/>
<path d="M507.577 371.21H478.716C475.3 371.21 472.531 373.969 472.531 377.371C472.531 380.774 475.3 383.532 478.716 383.532H507.577C510.993 383.532 513.762 380.774 513.762 377.371C513.762 373.969 510.993 371.21 507.577 371.21Z" fill="#00D3D4"/>
<path d="M366.153 220.881H305.955V223.347H366.153V220.881Z" fill="#C5C6CB"/>
<path d="M356.258 224.989H305.955V227.454H356.258V224.989Z" fill="#C5C6CB"/>
<path d="M435.422 220.881H395.84V223.347H435.422V220.881Z" fill="#C5C6CB"/>
<path d="M366.153 258.669H305.955V261.134H366.153V258.669Z" fill="#C5C6CB"/>
<path d="M356.258 262.776H305.955V265.242H356.258V262.776Z" fill="#C5C6CB"/>
<path d="M435.422 258.669H395.84V261.134H435.422V258.669Z" fill="#C5C6CB"/>
<path d="M366.153 297.278H305.955V299.743H366.153V297.278Z" fill="#C5C6CB"/>
<path d="M356.258 301.385H305.955V303.851H356.258V301.385Z" fill="#C5C6CB"/>
<path d="M435.422 297.278H395.84V299.743H435.422V297.278Z" fill="#C5C6CB"/>
<path d="M366.153 335.066H305.955V337.531H366.153V335.066Z" fill="#C5C6CB"/>
<path d="M356.258 339.173H305.955V341.638H356.258V339.173Z" fill="#C5C6CB"/>
<path d="M435.422 335.066H395.84V337.531H435.422V335.066Z" fill="#C5C6CB"/>
<path d="M366.153 373.675H305.955V376.14H366.153V373.675Z" fill="#C5C6CB"/>
<path d="M356.258 377.782H305.955V380.247H356.258V377.782Z" fill="#C5C6CB"/>
<path d="M435.422 373.675H395.84V376.14H435.422V373.675Z" fill="#C5C6CB"/>
<path d="M277.918 246.347H245.757V278.384H277.918V246.347Z" fill="#C5C6CB"/>
<path d="M277.918 284.956H245.757V316.993H277.918V284.956Z" fill="#C5C6CB"/>
<path d="M277.918 322.744H245.757V354.781H277.918V322.744Z" fill="#C5C6CB"/>
<path d="M277.918 361.353H245.757V393.39H277.918V361.353Z" fill="#C5C6CB"/>
<path d="M277.918 208.559H245.757V240.597H277.918V208.559Z" fill="#C5C6CB"/>
<path d="M243.159 188.844H530.38C531.44 188.844 532.457 189.264 533.207 190.011C533.956 190.758 534.378 191.771 534.378 192.827V201.988H239.16V192.827C239.16 191.771 239.582 190.758 240.332 190.011C241.081 189.264 242.098 188.844 243.159 188.844V188.844Z" fill="#383A4A"/>
<path d="M682.586 83.3208H552.744C549.432 83.3208 546.747 85.9956 546.747 89.2951V152.1C546.747 155.4 549.432 158.074 552.744 158.074H682.586C685.898 158.074 688.583 155.4 688.583 152.1V89.2951C688.583 85.9956 685.898 83.3208 682.586 83.3208Z" fill="white"/>
<path d="M625.912 91.5355H551.695V96.4661H625.912V91.5355Z" fill="#ACACAC"/>
<path d="M528.38 83.3208H399.363C396.051 83.3208 393.366 85.9956 393.366 89.2951V152.1C393.366 155.4 396.051 158.074 399.363 158.074H528.38C531.693 158.074 534.378 155.4 534.378 152.1V89.2951C534.378 85.9956 531.693 83.3208 528.38 83.3208Z" fill="white"/>
<path d="M472.531 91.5355H398.314V96.4661H472.531V91.5355Z" fill="#ACACAC"/>
<path d="M374.999 83.3208H245.158C241.846 83.3208 239.16 85.9956 239.16 89.2951V152.1C239.16 155.4 241.846 158.074 245.158 158.074H374.999C378.312 158.074 380.997 155.4 380.997 152.1V89.2951C380.997 85.9956 378.312 83.3208 374.999 83.3208Z" fill="white"/>
<path d="M318.325 91.5355H244.108V96.4661H318.325V91.5355Z" fill="#ACACAC"/>
<path d="M682.586 303.028H552.744C549.432 303.028 546.747 305.703 546.747 309.003V393.987C546.747 397.287 549.432 399.962 552.744 399.962H682.586C685.898 399.962 688.583 397.287 688.583 393.987V309.003C688.583 305.703 685.898 303.028 682.586 303.028Z" fill="white"/>
<path d="M701.777 33.2112H225.966V70.1773H701.777V33.2112Z" fill="#C5C6CB"/>
<path d="M109.969 62.2115C116.041 62.2115 120.964 57.3077 120.964 51.2586C120.964 45.2095 116.041 40.3057 109.969 40.3057C103.896 40.3057 98.9735 45.2095 98.9735 51.2586C98.9735 57.3077 103.896 62.2115 109.969 62.2115Z" fill="white"/>
<path d="M552.02 102.414H626.236V104.406H552.02V102.414Z" fill="#ACACAC"/>
<path d="M398.089 102.414H472.306V104.406H398.089V102.414Z" fill="#ACACAC"/>
<path d="M552.02 114.362H626.236V116.354H552.02V114.362Z" fill="#ACACAC"/>
<path d="M244.158 100.422H318.375V102.414H244.158V100.422Z" fill="#ACACAC"/>
<path d="M552.02 106.397H626.236V108.389H552.02V106.397Z" fill="#ACACAC"/>
<path d="M552.02 106.397H626.236V108.389H552.02V106.397Z" fill="#ACACAC"/>
<path d="M398.089 106.397H472.306V108.389H398.089V106.397Z" fill="#ACACAC"/>
<path d="M552.02 118.345H626.236V120.337H552.02V118.345Z" fill="#ACACAC"/>
<path d="M244.158 104.405H318.375V106.397H244.158V104.405Z" fill="#ACACAC"/>
<path d="M552.02 110.379H626.236V112.372H552.02V110.379Z" fill="#ACACAC"/>
<path d="M398.089 110.379H472.306V112.372H398.089V110.379Z" fill="#ACACAC"/>
<path d="M398.089 114.362H472.306V116.354H398.089V114.362Z" fill="#ACACAC"/>
<path d="M552.02 122.328H626.236V124.32H552.02V122.328Z" fill="#ACACAC"/>
<path d="M244.158 108.388H318.375V110.38H244.158V108.388Z" fill="#ACACAC"/>
<path d="M618.94 43.741H244.108V58.6768H618.94V43.741Z" fill="white"/>
<path d="M618.44 44.239H244.608V58.179H618.44V44.239Z" stroke="#C5C6CB"/>
<path d="M679.499 43.3446H638.644C634.124 43.3446 630.459 46.9946 630.459 51.4971C630.459 55.9995 634.124 59.6495 638.644 59.6495H679.499C684.019 59.6495 687.684 55.9995 687.684 51.4971C687.684 46.9946 684.019 43.3446 679.499 43.3446Z" fill="white"/>
<path d="M682.586 181.556H552.744C549.432 181.556 546.747 184.231 546.747 187.531V280.73C546.747 284.03 549.432 286.704 552.744 286.704H682.586C685.898 286.704 688.583 284.03 688.583 280.73V187.531C688.583 184.231 685.898 181.556 682.586 181.556Z" fill="white"/>
<path d="M567.363 228.38H559.117V283.419H567.363V228.38Z" fill="#92A1FF"/>
<path d="M591.277 244.81H583.031V283.419H591.277V244.81Z" fill="#92A1FF"/>
<path d="M615.191 235.773H606.945V283.419H615.191V235.773Z" fill="#92A1FF"/>
<path d="M639.106 248.095H630.859V283.419H639.106V248.095Z" fill="#92A1FF"/>
<path d="M663.02 235.773H654.774V283.419H663.02V235.773Z" fill="#92A1FF"/>
<path d="M575.609 209.486H567.363V283.419H575.609V209.486Z" fill="#5168FF"/>
<path d="M599.523 217.701H591.277V283.419H599.523V217.701Z" fill="#5168FF"/>
<path d="M623.438 214.415H615.191V283.419H623.438V214.415Z" fill="#5168FF"/>
<path d="M647.352 207.022H639.106V283.419H647.352V207.022Z" fill="#5168FF"/>
<path d="M671.266 199.629H663.02V283.419H671.266V199.629Z" fill="#5168FF"/>
<path d="M551.695 188.95H550.046V282.597H551.695V188.95Z" fill="#C5C6CB"/>
<path d="M682.811 283.419V281.776H550.046V283.419H682.811Z" fill="#C5C6CB"/>
<path d="M640.755 371.21V351.495H620.964V371.21H640.755Z" fill="#ACACAC"/>
<path d="M685.285 395.033V351.495H644.053V395.033H685.285Z" fill="#C5C6CB"/>
<path d="M640.755 395.033V375.318H620.964V395.033H640.755Z" fill="#ACACAC"/>
<path d="M594.576 371.21V351.495H574.785V371.21H594.576Z" fill="#ACACAC"/>
<path d="M594.576 395.033V375.318H574.785V395.033H594.576Z" fill="#ACACAC"/>
<path d="M617.665 371.21V351.495H597.874V371.21H617.665Z" fill="#ACACAC"/>
<path d="M617.665 395.033V375.318H597.874V395.033H617.665Z" fill="#ACACAC"/>
<path d="M571.486 371.21V351.495H551.695V371.21H571.486Z" fill="#ACACAC"/>
<path d="M571.486 395.033V375.318H551.695V395.033H571.486Z" fill="#ACACAC"/>
<path d="M685.285 314.961H551.695V316.604H685.285V314.961Z" fill="#C5C6CB"/>
<path d="M605.296 305.914H551.695V308.379H605.296V305.914Z" fill="#C5C6CB"/>
<path d="M677.863 328.747H551.695V330.39H677.863V328.747Z" fill="#C5C6CB"/>
<path d="M660.546 318.407H551.695V320.051H660.546V318.407Z" fill="#C5C6CB"/>
<path d="M672.091 311.514H551.695V313.157H672.091V311.514Z" fill="#C5C6CB"/>
<path d="M681.986 332.193H551.695V333.836H681.986V332.193Z" fill="#C5C6CB"/>
<path d="M677.039 321.853H551.695V323.497H677.039V321.853Z" fill="#C5C6CB"/>
<path d="M679.512 335.639H551.695V337.283H679.512V335.639Z" fill="#C5C6CB"/>
<path d="M681.162 325.3H551.695V326.943H681.162V325.3Z" fill="#C5C6CB"/>
<path d="M678.688 342.459H551.695V344.102H678.688V342.459Z" fill="#C5C6CB"/>
<defs>
<radialGradient id="paint0_radial_21_41" cx="0" cy="0" r="1" gradientUnits="userSpaceOnUse" gradientTransform="translate(281.927 68.4127) scale(283.56 282.772)">
<stop stop-color="#DAD8DB"/>
<stop offset="1" stop-color="#868686"/>
</radialGradient>
<radialGradient id="paint1_radial_21_41" cx="0" cy="0" r="1" gradientUnits="userSpaceOnUse" gradientTransform="translate(279.724 223.142) scale(366.103 364.854)">
<stop stop-color="#6E7072"/>
<stop offset="0.63" stop-color="#626566"/>
<stop offset="1" stop-color="#595C5D"/>
</radialGradient>
<radialGradient id="paint2_radial_21_41" cx="0" cy="0" r="1" gradientUnits="userSpaceOnUse" gradientTransform="translate(842.912 257.922) scale(618.091 615.891)">
<stop stop-color="white"/>
<stop offset="0.09" stop-color="white" stop-opacity="0.949"/>
<stop offset="0.25" stop-color="white" stop-opacity="0.831"/>
<stop offset="0.45" stop-color="white" stop-opacity="0.631"/>
<stop offset="0.7" stop-color="white" stop-opacity="0.361"/>
<stop offset="0.99" stop-color="white" stop-opacity="0.02"/>
<stop offset="1" stop-color="white" stop-opacity="0"/>
</radialGradient>
<linearGradient id="paint3_linear_21_41" x1="395.824" y1="464.711" x2="395.824" y2="447.374" gradientUnits="userSpaceOnUse">
<stop stop-color="#6A6C6D"/>
<stop offset="0.29" stop-color="#818484"/>
<stop offset="1" stop-color="#B7BCB9"/>
</linearGradient>
<linearGradient id="paint4_linear_21_41" x1="341.995" y1="445.975" x2="449.624" y2="445.975" gradientUnits="userSpaceOnUse">
<stop stop-color="#6A6C6D"/>
<stop offset="0.04" stop-color="#8B8F8E"/>
<stop offset="0.1" stop-color="#AEB4B0"/>
<stop offset="0.15" stop-color="#C9D1CB"/>
<stop offset="0.21" stop-color="#DCE5DF"/>
<stop offset="0.26" stop-color="#E8F2EA"/>
<stop offset="0.32" stop-color="#ECF6EE"/>
<stop offset="0.7" stop-color="#ECF6EE"/>
<stop offset="0.74" stop-color="#E4EEE7"/>
<stop offset="0.8" stop-color="#D0D8D2"/>
<stop offset="0.88" stop-color="#AEB4B0"/>
<stop offset="0.96" stop-color="#7F8382"/>
<stop offset="1" stop-color="#6A6C6D"/>
</linearGradient>
</defs>
</svg>
