<svg width="127" height="37" viewBox="0 0 127 37" fill="none" xmlns="http://www.w3.org/2000/svg">
<path d="M0 8.04123H5.84161L6.99551 9.91632C7.95709 9.19513 8.85858 8.65424 9.69996 8.29365C10.5654 7.90902 11.6592 7.7167 12.9814 7.7167C14.1353 7.7167 15.1089 7.95709 15.9022 8.43789C16.6955 8.89464 17.3085 9.53169 17.7412 10.349C20.049 8.59414 22.0924 7.7167 23.8713 7.7167C26.2272 7.7167 27.8498 8.32971 28.7393 9.55573C29.6288 10.7817 30.0735 12.6688 30.0735 15.217V27.4772H23.078V15.8661C23.078 15.169 22.9097 14.6882 22.5732 14.4237C22.2366 14.1353 21.7678 13.991 21.1668 13.991C20.686 13.991 20.2053 14.0992 19.7245 14.3156C19.2437 14.5319 18.847 14.7964 18.5345 15.1089V16.0103V27.4772H11.539V15.8661C11.539 15.169 11.3707 14.6882 11.0342 14.4237C10.6976 14.1353 10.2288 13.991 9.62785 13.991C9.14705 13.991 8.66626 14.0992 8.18547 14.3156C7.70468 14.5319 7.30803 14.7964 6.99551 15.1089V27.4772H0V8.04123ZM41.6818 27.4772C37.9316 27.4772 35.6599 25.6021 34.8666 21.852L31.8737 8.04123H39.1216L41.3212 20.4456C41.4654 21.3351 41.9823 21.8039 42.8718 21.852L45.3599 8.04123H52.4635L47.5234 32.4534L45.7204 36.0233H39.8067L41.6818 27.4772ZM62.3768 27.4772C60.6699 27.4772 59.3237 27.2488 58.3381 26.7921C57.3765 26.3353 56.6794 25.5781 56.2467 24.5204C55.814 23.4626 55.6337 22.0082 55.7058 20.1572L55.9221 13.5944H52.9292V9.12301L56.2106 8.04123L57.076 2.59627H62.6292V8.04123H66.5596V13.5944H62.6292V20.1211C62.6292 20.7461 62.7253 21.2149 62.9176 21.5274C63.134 21.8159 63.4706 21.9842 63.9273 22.0323L66.4154 22.2847V27.4772H62.3768ZM68.879 0H75.8745V9.91632C76.4755 9.33937 77.2928 8.83454 78.3265 8.40183C79.3842 7.94508 80.4179 7.7167 81.4276 7.7167C83.6152 7.7167 85.1537 8.31769 86.0432 9.51967C86.9567 10.7216 87.4135 12.5006 87.4135 14.8564V27.4772H80.4179V15.794C80.4179 14.592 79.7809 13.991 78.5068 13.991C78.05 13.991 77.5693 14.0992 77.0644 14.3156C76.5836 14.5319 76.187 14.7964 75.8745 15.1089V27.4772H68.879V0ZM99.2634 27.6575C96.9311 27.6575 95.0921 27.333 93.7459 26.6839C92.4237 26.0108 91.4621 24.9651 90.8611 23.5468C90.2842 22.1044 89.9957 20.1572 89.9957 17.7051C89.9957 15.0848 90.2842 13.0655 90.8611 11.6472C91.4621 10.2048 92.4237 9.19513 93.7459 8.61818C95.0681 8.01719 96.9071 7.7167 99.2634 7.7167C101.619 7.7167 103.458 8.02921 104.78 8.65424C106.103 9.25523 107.052 10.2769 107.629 11.7193C108.23 13.1617 108.531 15.1569 108.531 17.7051C108.531 20.2533 108.242 22.2366 107.665 23.6549C107.112 25.0733 106.175 26.0949 104.853 26.72C103.53 27.345 101.667 27.6575 99.2634 27.6575ZM99.2634 22.1044C99.9124 22.1044 100.381 22.0202 100.67 21.852C100.982 21.6596 101.199 21.263 101.319 20.662C101.463 20.037 101.535 19.0393 101.535 17.6691C101.535 16.3229 101.463 15.3493 101.319 14.7483C101.199 14.1232 100.982 13.7266 100.67 13.5583C100.381 13.366 99.9124 13.2698 99.2634 13.2698C98.6143 13.2698 98.1331 13.366 97.8206 13.5583C97.5321 13.7266 97.3158 14.1232 97.1715 14.7483C97.0513 15.3493 96.9912 16.3229 96.9912 17.6691C96.9912 19.0393 97.0513 20.037 97.1715 20.662C97.3158 21.263 97.5321 21.6596 97.8206 21.852C98.1331 22.0202 98.6143 22.1044 99.2634 22.1044ZM118.526 27.6936C117.036 27.6936 115.617 27.6094 114.271 27.4412C112.949 27.2488 111.855 26.9604 110.99 26.5757V22.501H120.004C120.437 22.501 120.726 22.453 120.87 22.3568C121.014 22.2366 121.086 22.0443 121.086 21.7798V21.3111C121.086 21.0466 120.99 20.8543 120.798 20.7341C120.63 20.6139 120.281 20.5538 119.752 20.5538H116.507C114.728 20.5538 113.285 20.1091 112.18 19.2196C111.098 18.3302 110.557 16.9118 110.557 14.9646V13.7747C110.557 12.4525 110.797 11.3707 111.278 10.5293C111.783 9.6639 112.648 9.00282 113.874 8.54606C115.124 8.08931 116.831 7.86094 118.995 7.86094C120.245 7.86094 121.555 7.98113 122.925 8.22153C124.32 8.43789 125.365 8.6903 126.062 8.97878V13.0535H117.516C117.156 13.0535 116.891 13.1136 116.723 13.2338C116.555 13.3299 116.471 13.5102 116.471 13.7747V14.2434C116.471 14.5319 116.567 14.7363 116.759 14.8564C116.976 14.9526 117.36 15.0007 117.913 15.0007H121.267C123.286 15.0007 124.74 15.4574 125.63 16.3709C126.543 17.2844 127 18.6066 127 20.3375V22.3207C127 24.2439 126.315 25.6262 124.945 26.4676C123.574 27.2849 121.435 27.6936 118.526 27.6936Z" fill="white"/>
</svg>
